<svg xmlns="http://www.w3.org/2000/svg" width="453" height="393" fill="none"><path stroke="#263238" stroke-linecap="round" stroke-linejoin="round" d="M0 386.956h452.156M347.972 234.428v.116c0 .189.042.389.126.599a68.035 68.035 0 0 1 1.052 6.971c.2 2.008.357 4.3.399 6.855.1 5.905-.304 11.807-1.209 17.643a98.768 98.768 0 0 1-.83 4.773 118.477 118.477 0 0 1-1.924 8.359 103.604 103.604 0 0 1-1.167 4.111l-.495 1.693a67.88 67.88 0 0 0-.557 2.103 139.262 139.262 0 0 0-2.891 14.172c-.894 5.941-1.451 11.839-1.756 17.422-.41 7.444-.389 14.32-.21 19.977a2.243 2.243 0 0 0 0 .284c.189 5.751.546 10.261.788 12.827.137 1.503.232 2.355.242 2.408"/><path fill="#fff" d="M348.004 234.576a12.732 12.732 0 0 0-5.52-2.871l5.52 2.871z"/><path stroke="#263238" stroke-linecap="round" stroke-linejoin="round" d="M348.004 234.576a12.732 12.732 0 0 0-5.52-2.871m6.698 10.441 2.796-2.534m-6.36 40.142a11.61 11.61 0 0 0-.652-2.155 11.16 11.16 0 0 0-1.672-2.828 10.916 10.916 0 0 0-1.756-1.735m1.84 14.604a7.731 7.731 0 0 1 4.384-4.321"/><path fill="#fff" d="M338.521 326.752c.935-1.135 1.64-5.436 2.018-7.749.095-.546.168-1.051.242-1.356"/><path stroke="#263238" stroke-linecap="round" stroke-linejoin="round" d="M338.521 326.752c.935-1.135 1.64-5.436 2.018-7.749.095-.546.168-1.051.242-1.356"/><path fill="#fff" d="M331.318 334.554c.311-.032.625-.032.936 0a7.624 7.624 0 0 1 6.309 4.678"/><path stroke="#263238" stroke-linecap="round" stroke-linejoin="round" d="M331.318 334.554c.311-.032.625-.032.936 0a7.624 7.624 0 0 1 6.309 4.678m8.978-67.763s.494-17.064-8.874-23.257"/><path fill="#938CC5" d="M348.34 308.048c1.231 3.985-7.359 11.565-7.359 11.565s-11.345-1.419-12.617-5.393c-1.272-3.975 1.64-10.514 7.149-12.197 5.51-1.682 11.639 2.04 12.827 6.025zm9.558-48.291c-1.052 4.205-9.211 7.223-9.211 7.223s-5.604-6.55-4.552-10.777c1.051-4.227 5.583-8.874 9.389-7.896 3.806.978 5.467 7.223 4.374 11.45zm-32.583 63.158c5.099 1.976 8.222 10.997 8.222 10.997s-8.411 4.532-13.5 2.545-10.514-7.581-9.042-11.313c1.472-3.733 9.221-4.259 14.32-2.229zm11.176-49.627a10.964 10.964 0 0 0 3.491 1.977 3.672 3.672 0 0 0 3.711-.883c1.051-1.251.799-3.154.116-4.721-1.367-2.996-6.393-8.096-10.252-6.634-5.572 2.134.453 8.443 2.934 10.261zm11.408 7.644c-.736.904-1.514 2.05-1.104 3.154.228.464.604.839 1.068 1.067.464.229.99.297 1.497.195a6.896 6.896 0 0 0 2.755-1.356c1.966-1.367 6.003-4.206 3.427-6.908s-6.15 1.945-7.643 3.848zm-16.455-38.134a2.03 2.03 0 0 0-1.84 1.493c-.168.977.642 1.829 1.42 2.428 1.955 1.514 7.833 5.573 9.137 1.651 1.24-3.701-6.13-5.856-8.717-5.572zm10.819-12.89c-1.209.115-2.418-.326-3.638-.253-1.219.074-2.555 1.052-2.292 2.25.263 1.199 1.619 1.462 2.734 1.525a21.86 21.86 0 0 0 5.73-.389 1.77 1.77 0 0 0 1.157-.589c.494-.726-.284-1.693-1.125-1.945a12.532 12.532 0 0 1-2.534-.61l-.032.011zm11.839 8.337c1.209 0 2.387-.484 3.606-.494 1.22-.011 2.629.883 2.429 2.103-.2 1.219-1.503 1.566-2.618 1.703a21.893 21.893 0 0 1-5.741 0 1.744 1.744 0 0 1-1.198-.515c-.536-.684.179-1.703.988-2.019.857-.16 1.693-.417 2.492-.767l.042-.011zm-1.199 89.601a1.701 1.701 0 0 1 1.052-.515 1.163 1.163 0 0 1 1.051 1.051 3.343 3.343 0 0 1-.189 1.535c-.831 2.765-10.083 22.731-12.217 19.146-1.252-2.103 1.84-9.137 2.754-11.124a28.997 28.997 0 0 1 7.549-10.093z"/><path stroke="#263238" stroke-linecap="round" stroke-linejoin="round" d="M348.393 235.722s-.557-4.847.61-5.257"/><path fill="#938CC5" d="M347.363 230.665a10.506 10.506 0 0 1 2.986-4.437c1.461-1.052 3.806-1.136 4.868.326 1.188 1.629 0 4.1-1.819 4.973-1.819.872-3.964.609-5.962.326v-.884l-.073-.304z"/><path fill="#fff" stroke="#263238" stroke-linecap="round" stroke-linejoin="round" d="M352.346 386.714a90.058 90.058 0 0 1-29.944 0l-11.649-34.371h53.243l-11.65 34.371z"/><path stroke="#263238" stroke-linecap="round" stroke-linejoin="round" d="M149.152 138.393v.116a64.805 64.805 0 0 1 1.178 7.57c.2 2.008.347 4.3.399 6.855.108 5.89-.286 11.778-1.177 17.601a98.8 98.8 0 0 1-.831 4.773 124.47 124.47 0 0 1-1.924 8.359 121.507 121.507 0 0 1-1.167 4.111c-.168.567-.336 1.125-.494 1.692-.158.568-.389 1.367-.568 2.103a139.883 139.883 0 0 0-2.891 14.173c-.894 5.941-1.441 11.839-1.746 17.422a228.38 228.38 0 0 0-.21 19.977v.283c.2 5.752.547 10.262.799 12.838.126 1.493.232 2.345.232 2.397"/><path fill="#fff" d="M149.173 138.541a13.494 13.494 0 0 0-2.46-1.714 13.19 13.19 0 0 0-3.07-1.157"/><path stroke="#263238" stroke-linecap="round" stroke-linejoin="round" d="M149.173 138.541a13.494 13.494 0 0 0-2.46-1.714 13.19 13.19 0 0 0-3.07-1.157m6.708 10.441 2.807-2.534m-6.361 40.142c-.15-.738-.372-1.46-.662-2.155a11.16 11.16 0 0 0-1.672-2.828 10.916 10.916 0 0 0-1.756-1.735m1.851 14.562a7.665 7.665 0 0 1 1.736-2.617 7.665 7.665 0 0 1 2.637-1.704"/><path fill="#fff" d="M139.689 230.717c.936-1.135 1.651-5.436 2.03-7.749.084-.546.168-1.051.231-1.356"/><path stroke="#263238" stroke-linecap="round" stroke-linejoin="round" d="M139.689 230.717c.936-1.135 1.651-5.436 2.03-7.749.084-.546.168-1.051.231-1.356"/><path fill="#fff" d="M132.487 238.476c.315-.031.632-.031.947 0a7.661 7.661 0 0 1 6.308 4.679"/><path stroke="#263238" stroke-linecap="round" stroke-linejoin="round" d="M132.487 238.476c.315-.031.632-.031.947 0a7.661 7.661 0 0 1 6.308 4.679m8.969-67.763s.504-17.064-8.874-23.257"/><path fill="#938CC5" d="M149.562 212.013c1.22 3.985-7.359 11.565-7.359 11.565s-11.356-1.419-12.617-5.394c-1.262-3.974 1.65-10.514 7.149-12.196 5.499-1.682 11.597 2.05 12.827 6.025zm9.526-48.291c-1.051 4.205-9.21 7.223-9.21 7.223s-5.667-6.55-4.574-10.777c1.094-4.227 5.573-8.874 9.379-7.896 3.806.978 5.456 7.223 4.405 11.45zm-32.594 63.157c5.1 1.988 8.233 10.998 8.233 10.998s-8.411 4.532-13.511 2.545c-5.099-1.988-10.514-7.581-9.031-11.314 1.482-3.732 9.2-4.216 14.309-2.229zm11.177-49.626a10.912 10.912 0 0 0 3.48 1.977 3.673 3.673 0 0 0 3.711-.883c1.052-1.251.799-3.154.116-4.721-1.367-2.997-6.382-8.096-10.251-6.634-5.562 2.113.452 8.421 2.944 10.261zm11.397 7.654c-.725.905-1.503 2.103-1.104 3.155a2.348 2.348 0 0 0 2.566 1.261 6.828 6.828 0 0 0 2.754-1.356c1.966-1.356 6.004-4.206 3.428-6.908-2.576-2.702-6.098 1.935-7.644 3.848zm-16.454-38.144a2.042 2.042 0 0 0-1.84 1.492c-.168.978.641 1.83 1.43 2.429 1.955 1.514 7.822 5.573 9.136 1.651 1.231-3.701-6.129-5.856-8.726-5.572zm10.818-12.891c-1.209.116-2.418-.326-3.627-.252-1.209.074-2.565 1.051-2.292 2.25.273 1.199 1.609 1.461 2.734 1.525a21.777 21.777 0 0 0 5.719-.389c.45-.042.867-.253 1.167-.589.484-.726-.294-1.693-1.125-1.945a12.642 12.642 0 0 1-2.544-.61l-.032.01zm11.839 8.338c1.22 0 2.398-.484 3.607-.494 1.209-.011 2.628.883 2.439 2.103-.189 1.219-1.514 1.566-2.629 1.703a21.885 21.885 0 0 1-5.74 0 1.746 1.746 0 0 1-1.199-.515c-.536-.684.179-1.704.999-2.019.856-.163 1.692-.42 2.492-.768l.031-.01zm-1.198 89.601c.279-.29.651-.472 1.051-.516.268.032.518.153.709.343.19.191.311.441.343.709a3.346 3.346 0 0 1-.2 1.535c-.82 2.765-10.083 22.731-12.207 19.146-1.262-2.103 1.829-9.137 2.744-11.124a28.996 28.996 0 0 1 7.56-10.093z"/><path stroke="#263238" stroke-linecap="round" stroke-linejoin="round" d="M149.562 139.708s-.557-4.847.621-5.257"/><path fill="#938CC5" d="M148.574 134.629a10.323 10.323 0 0 1 2.986-4.437c1.461-1.051 3.795-1.135 4.857.326 1.188 1.63 0 4.101-1.819 4.973-1.819.873-3.953.61-5.951.326v-.883l-.073-.305z"/><path stroke="#263238" stroke-linecap="round" stroke-linejoin="round" d="M15.94 254.615V150.726m324.357 103.889h-12.838m113.51 0h-26.148M326.282 96.79h46.336V52.65M56.219 83.31h49.226v35.906h53.958M27.179 204.905v-79.339m21.995-34.433v62.18m21.986-62.18V146.1m21.984-54.967v96.151M198.463 77.496v-63.22h89.506v63.22"/><path stroke="#263238" stroke-linecap="round" stroke-linejoin="round" d="M205.024 45.68V21.783h16.549m3.638 23.897V21.783h16.549m3.637 23.897V21.783h16.55m3.637 23.897V21.783h16.55m-77.11 55.713V53.598h16.549m3.638 23.898V53.598h16.549m3.637 23.898V53.598h16.55m3.637 23.898V53.598h16.55m97.654 4.521v79.223m32.499 111.47h2.534m-15.55-167.941v88.696m19.493 56.598v22.647h15.55m-15.55-139.027v60.235m19.482-14.531v93.323h3.543"/><path fill="#fff" stroke="#263238" stroke-linecap="round" stroke-linejoin="round" d="M200.818 256.519H0v130.437h200.818V256.519z"/><path fill="#fff" stroke="#263238" stroke-linecap="round" stroke-linejoin="round" d="m0 256.519 100.409 65.218 100.409-65.218H0z"/><path stroke="#263238" stroke-linecap="round" stroke-linejoin="round" d="M70.223 302.128 0 386.956m131.142-84.828 70.223 84.828"/><path fill="#938CC5" d="M308.282 90.081H261.6a7.53 7.53 0 0 0-6.582 3.89 13.252 13.252 0 0 1-11.597 6.833 13.26 13.26 0 0 1-11.597-6.832 7.514 7.514 0 0 0-6.613-3.943h-46.63a9.743 9.743 0 0 0-9.083 5.9 9.758 9.758 0 0 0-.79 3.72v263.292a9.758 9.758 0 0 0 9.873 9.621h129.701a9.77 9.77 0 0 0 9.883-9.621V99.701a9.757 9.757 0 0 0-9.883-9.62z"/><path fill="#263238" d="M322.718 96.79a13.487 13.487 0 0 0-3.933-9.559 13.48 13.48 0 0 0-9.546-3.963H177.635a13.473 13.473 0 0 0-12.453 8.312 13.46 13.46 0 0 0-1.026 5.157v276.719a13.467 13.467 0 0 0 13.468 13.468h131.615a13.48 13.48 0 0 0 13.479-13.468V96.789zm-4.553 266.152a9.769 9.769 0 0 1-9.883 9.62H178.581a9.76 9.76 0 0 1-9.873-9.62V99.702a9.758 9.758 0 0 1 2.944-6.855 9.757 9.757 0 0 1 6.929-2.766h46.651a7.493 7.493 0 0 1 6.603 3.943 13.253 13.253 0 0 0 11.597 6.833 13.263 13.263 0 0 0 11.597-6.833 7.497 7.497 0 0 1 6.581-3.89h46.683a9.743 9.743 0 0 1 9.082 5.9 9.739 9.739 0 0 1 .79 3.72v263.188z"/><path fill="#fff" d="m278.002 83.31-87.424 303.635 34.717-.032L309.481 83.31h-31.479zm-13.038 0-92.428 303.645 5.057-.031L268.287 83.31h-3.323z" opacity=".2"/><path fill="#fff" stroke="#263238" stroke-linecap="round" stroke-linejoin="round" d="M267.015 309.036a22.562 22.562 0 0 1-13.867 21.306 22.583 22.583 0 0 1-8.77 1.741 23.545 23.545 0 0 1-16.413-6.752 23.545 23.545 0 0 1-7.033-16.295 22.568 22.568 0 0 1 6.464-16.287A22.568 22.568 0 0 1 243.568 286a23.532 23.532 0 0 1 23.447 23.036z"/><path fill="#938CC5" stroke="#263238" stroke-linecap="round" stroke-linejoin="round" d="M236.419 326.237a17.257 17.257 0 0 1-5.773-3.554 15.77 15.77 0 0 1-3.816-5.772 20.522 20.522 0 0 1-1.377-7.675 18.334 18.334 0 0 1 1.167-6.55 16.457 16.457 0 0 1 3.154-5.257 21.026 21.026 0 0 1 10.062-6.12 22.246 22.246 0 0 1 5.824-.767 19.882 19.882 0 0 1 4.847.578c1.531.376 2.995.982 4.343 1.798a14.483 14.483 0 0 1 3.543 2.997 13.206 13.206 0 0 1 2.376 4.31c.59 1.795.881 3.674.862 5.562a15.438 15.438 0 0 1-3.711 9.947 13.785 13.785 0 0 1-3.575 2.891 7.94 7.94 0 0 1-3.806 1.051 4.197 4.197 0 0 1-2.565-.83 2.998 2.998 0 0 1-1.21-2.376 7.362 7.362 0 0 1-6.361 3.311 6.62 6.62 0 0 1-5.257-2.229 8.057 8.057 0 0 1-1.945-5.498 14.73 14.73 0 0 1 .852-4.858 16.836 16.836 0 0 1 2.324-4.395 11.55 11.55 0 0 1 3.68-3.206 9.531 9.531 0 0 1 4.72-1.231 6.94 6.94 0 0 1 3.302.799 5.434 5.434 0 0 1 2.292 2.345l.21-.704a1.968 1.968 0 0 1 2.492-1.231c.191.065.371.157.536.274a1.254 1.254 0 0 1 .473 1.051c.001.197-.031.392-.094.579l-3.407 11.334c-.3.863-.494 1.76-.578 2.67a1.05 1.05 0 0 0 1.251 1.22 4.698 4.698 0 0 0 3.154-1.504 10.796 10.796 0 0 0 2.555-3.984c.653-1.64.988-3.388.988-5.152.014-1.554-.213-3.1-.672-4.584a11.2 11.2 0 0 0-1.809-3.544 10.726 10.726 0 0 0-2.744-2.449 11.926 11.926 0 0 0-3.386-1.462 14.75 14.75 0 0 0-3.764-.484 17.39 17.39 0 0 0-4.762.673 16.918 16.918 0 0 0-4.511 2.03 17.601 17.601 0 0 0-3.785 3.217 14.109 14.109 0 0 0-2.608 4.458 15.66 15.66 0 0 0-.977 5.562 17.16 17.16 0 0 0 1.198 6.571 12.537 12.537 0 0 0 3.281 4.731 14.71 14.71 0 0 0 4.752 2.765 16.92 16.92 0 0 0 5.73.968c2.086 0 4.16-.316 6.151-.936.199-.071.409-.107.62-.105.197-.003.393.036.574.113.181.078.344.194.478.339.134.14.239.304.309.485.071.18.105.373.101.566a1.272 1.272 0 0 1-.989 1.346 26.945 26.945 0 0 1-7.654 1.178 20.546 20.546 0 0 1-7.065-1.262zm8.684-10.903a5.94 5.94 0 0 0 2.198-3.028l2.197-7.728-.147-.315a3.721 3.721 0 0 0-.494-.705 7.284 7.284 0 0 0-.862-.841 4.474 4.474 0 0 0-1.315-.725 5.255 5.255 0 0 0-3.816.136 6.155 6.155 0 0 0-1.798 1.167 9.8 9.8 0 0 0-1.451 1.704c-.418.647-.77 1.333-1.051 2.05-.296.717-.525 1.46-.684 2.218-.159.722-.24 1.459-.242 2.198-.009.474.019.949.084 1.419.049.419.141.831.274 1.23.115.372.281.726.494 1.052a2.894 2.894 0 0 0 1.714 1.23c.419.123.856.18 1.293.168a5.93 5.93 0 0 0 3.648-1.198l-.042-.032z"/><path fill="#fff" stroke="#263238" stroke-linecap="round" stroke-linejoin="round" d="M266.5 230.044a22.568 22.568 0 0 1-13.869 21.296 22.558 22.558 0 0 1-8.768 1.74 23.525 23.525 0 0 1-23.446-23.036 22.554 22.554 0 0 1 22.636-23.047 23.542 23.542 0 0 1 23.447 23.047z"/><path fill="#938CC5" stroke="#263238" stroke-linecap="round" stroke-linejoin="round" d="M257.92 227.941c-7.223-4.731-21.385-4.731-28.272 0a5.347 5.347 0 0 0-4.353 5.457c.105 3.06 12.817 3.06 12.711 0a5.724 5.724 0 0 0-1.387-3.469 34.22 34.22 0 0 1 14.467 0 5.321 5.321 0 0 0-1.136 3.469c.106 3.06 12.817 3.06 12.701 0a5.822 5.822 0 0 0-4.731-5.457z"/><path fill="#fff" stroke="#263238" stroke-linecap="round" stroke-linejoin="round" d="M266.499 153.313c.126 5.667-2.965 10.735-7.927 14.11v13.762l-9.873-9.883a26.95 26.95 0 0 1-4.837.421c-12.722 0-23.225-8.243-23.446-18.41-.221-10.167 9.904-18.4 22.637-18.4 12.732 0 23.278 8.285 23.446 18.4z"/><path fill="#938CC5" stroke="#263238" stroke-linecap="round" stroke-linejoin="round" d="M233.643 153.313a2.987 2.987 0 0 1-3.562 2.94 2.982 2.982 0 0 1-2.352-2.343 2.985 2.985 0 0 1 2.928-3.573 2.986 2.986 0 0 1 2.986 2.976zm12.775 0a2.995 2.995 0 0 1-.498 1.662 2.983 2.983 0 0 1-4.596.463 2.982 2.982 0 0 1-.652-3.255 2.988 2.988 0 0 1 4.867-.975c.56.558.876 1.315.879 2.105zm12.774 0a2.987 2.987 0 0 1-3.562 2.94 2.983 2.983 0 0 1 .576-5.916 2.986 2.986 0 0 1 2.986 2.976zm-144.473 41.961a4.826 4.826 0 0 1-1.567 1.725 297.84 297.84 0 0 1-14.888 11.134c-1.86 1.304-3.795 2.649-5.593 4.111-10.809 7.234-4.206 9-10.809 24.308-1.556 3.659-1.272 21.586-1.272 21.586h-.536a41.074 41.074 0 0 0-4.027-3.491 5.733 5.733 0 0 0-.61-.358 1.972 1.972 0 0 0-.63-.199c-1.052-.063-5.058.42-9.106.157l-1.051-.084a23.502 23.502 0 0 1-1.745-.242 19.141 19.141 0 0 1-1.672-.368 104.379 104.379 0 0 1-11.282-4.352l-1.83-.789-.904-.389-.82-.357-.588-.253-.568-.242c-.957-.399-1.85-.767-2.67-1.051a11.745 11.745 0 0 0-1.147-.347c0 .862-.136 1.745-.252 2.608-.505 4.111-1.63 7.906-3.638 8.411a.245.245 0 0 1-.126 0 3.11 3.11 0 0 1-.536.052h-.158a4.084 4.084 0 0 1-1.304-.241 8.414 8.414 0 0 1-4.205-3.943 5.531 5.531 0 0 1-.652-2.418c0-3.06-.852-21.113-.852-26.37 0-5.257 1.052-14.456 3.67-17.873a13.837 13.837 0 0 1 3.806-3.649 20.051 20.051 0 0 1 6.487-3.617c2.797-.914 9.052-3.248 13.416-4.899l-6.593 2.544c1.672 2.86 5.257 7.36 11.724 7.938 6.077.515 9.84-4.983 11.765-9 .168.063 10.745-1.945 13.195-1.829 7.98.347 14.488-3.974 17.432-5.688a6.857 6.857 0 0 1 5.951-.528 6.872 6.872 0 0 1 4.111 4.334v.094a5.05 5.05 0 0 1 .074 3.575z"/><path stroke="#263238" stroke-linecap="round" stroke-linejoin="round" d="m73.84 195.379-.484-.168"/><path fill="#fff" stroke="#263238" stroke-linecap="round" stroke-linejoin="round" d="M82.808 262.764a.52.52 0 0 1 0 .126.73.73 0 0 1-.476.423.733.733 0 0 1-.628-.108c-.483-.273-1.23-2.029-1.23-2.029l-.83-.862-.547-.578c.084.21.746 1.819.4 2.565a.372.372 0 0 1-.085.137c-.232.31-.534.562-.88.736-.347.173-.73.263-1.117.263-.453 0-1.777.157-2.934.231h-.126c-.35.02-.701.02-1.051 0a7.126 7.126 0 0 1-2.65-.894 32.022 32.022 0 0 1-5.446-1.293l-.316-.168-.283-.168a2.815 2.815 0 0 1-.516-.4 7.28 7.28 0 0 1-1.608-1.892s-4.269-.179-10-.621a293.61 293.61 0 0 1-6.728-.588c-3.617-.368-6.603-.347-8.948-.673h-.168a14.62 14.62 0 0 1-1.303-.242 5.424 5.424 0 0 1-4.206-3.943 13.55 13.55 0 0 1-.337-1.419l1.83-3.155a12.191 12.191 0 0 1 3.154-1.829 9.36 9.36 0 0 1 5.583-.515c.388.096.77.212 1.146.347.82.315 1.714.683 2.67 1.051l.579.242.589.252.82.358c4.678 1.934 10.261 4.426 13.994 5.478 1.121.293 2.264.497 3.417.609l1.051.085c4.048.262 8.044-.221 9.106-.158 1.061.063 3.658 2.534 5.32 4.058.452.421.851.768 1.125.978l.126.105.094.084a4.734 4.734 0 0 1 1.22 2.229c.083.282.14.57.168.862.02.104.026.21.021.316z"/><path fill="#fff" stroke="#263238" stroke-linecap="round" stroke-linejoin="round" d="M82.809 262.764a.52.52 0 0 1 0 .126.731.731 0 0 1-.48.416.729.729 0 0 1-.624-.111 7.178 7.178 0 0 1-1.23-2.029l-.831-.852-.547-.568c.074.169.757 1.809.41 2.566a.36.36 0 0 1-.084.136c-.116.155-.25.297-.4.421a2.581 2.581 0 0 1-1.597.568c-.463 0-1.777.147-2.923.231h-.147c-.35.019-.702.019-1.052 0a7.372 7.372 0 0 1-2.639-.883 32.442 32.442 0 0 1-5.446-1.304l-.305-.147-.284-.168a4.274 4.274 0 0 1-.515-.4 7.275 7.275 0 0 1-1.63-1.913s-4.142-.179-9.757-.61a299.93 299.93 0 0 1-6.97-.61c-3.323-.326-6.067-.421-8.286-.768l-.683-.126-.789-.178a8.047 8.047 0 0 1 .39-3.828 7.505 7.505 0 0 1 4.689-4.394 29.819 29.819 0 0 1 4.026-1.167l.568.241.589.253.82.357c4.763 2.05 10.283 4.532 14.026 5.552 1.12.295 2.263.495 3.417.599l1.051.084c4.048.273 8.044-.21 9.105-.147 1.062.063 3.649 2.523 5.257 4.048.365.348.748.678 1.146.988l.127.095.094.084a4.464 4.464 0 0 1 1.22 2.229c.083.281.139.57.168.862.054.11.093.227.116.347z"/><path fill="#fff" d="M70.223 259.967s2.387 1.241 3.333 1.672c.946.431.862 2.166.862 2.166"/><path stroke="#263238" stroke-linecap="round" stroke-linejoin="round" d="M70.223 259.967s2.387 1.241 3.333 1.672c.946.431.862 2.166.862 2.166"/><path fill="#fff" d="M72.778 258.285a54.298 54.298 0 0 1 4.332 3.438 1.67 1.67 0 0 1 .263 1.745"/><path stroke="#263238" stroke-linecap="round" stroke-linejoin="round" d="M72.778 258.285a54.298 54.298 0 0 1 4.332 3.438 1.67 1.67 0 0 1 .263 1.745"/><path fill="#fff" d="M79.065 259.725a49.874 49.874 0 0 0-3.942-3.785l3.942 3.785z"/><path stroke="#263238" stroke-linecap="round" stroke-linejoin="round" d="M79.065 259.725a49.874 49.874 0 0 0-3.942-3.785"/><path fill="#fff" stroke="#263238" stroke-linecap="round" stroke-linejoin="round" d="M73.83 195.4c-1.904 4.006-5.678 9.463-11.755 8.99-6.435-.547-10.052-5.078-11.723-7.949a729.11 729.11 0 0 0 6.581-2.544c0-1.956-.063-4.3-.273-6.624 0-.505-.105-1.051-.158-1.524-.052-.474-.115-.81-.178-1.199H68.55s-.073.484-.168 1.293a81.363 81.363 0 0 0-.242 2.786 53.898 53.898 0 0 0-.115 4.763c.588.2 1.188.421 1.787.652l1.157.4c.462.168.914.315 1.398.473l1.051.315c.14.048.277.104.41.168z"/><path fill="#263238" d="M56.502 185.707s2.282 5.929 5.594 6.939c3.312 1.009 6.308-6.803 6.308-6.803s-4.668 4.984-6.403 4.206c-1.734-.778-5.477-4.3-5.477-4.3"/><path fill="#263238" stroke="#263238" stroke-linecap="round" stroke-linejoin="round" d="M54.536 152.955a28.759 28.759 0 0 0-7.18 10.02c-1.504 3.154-2.776 6.782-1.62 10.083a14.952 14.952 0 0 0 2.891 4.437c2.271 2.723 5.457 10.325 7.728 13.048.147-4.847-3.911-12.68-3.48-16.749a29.178 29.178 0 0 1 3.06-8.989 46.188 46.188 0 0 1 5.95-10.325c1.378-1.661 5.804-4.616 1.336-4.973-2.965-.242-6.445 1.608-8.685 3.448z"/><path fill="#fff" stroke="#263238" stroke-linecap="round" stroke-linejoin="round" d="M51.676 169.483s-1.566-3.038-3.217-.157c-1.188 2.102.526 5.414 1.262 6.645a2.469 2.469 0 0 0 2.197 1.051l-.242-7.539z"/><path fill="#fff" stroke="#263238" stroke-linecap="round" stroke-linejoin="round" d="M72.263 180.46a21.336 21.336 0 0 1-3.88 5.383l-.946.978c-1.956 1.935-4.069 3.47-5.457 3.154-1.209-.242-2.786-1.482-4.331-3.07-.39-.389-.768-.809-1.147-1.23a29.75 29.75 0 0 1-4.3-6.088 9.512 9.512 0 0 1-.62-2.576 60.18 60.18 0 0 1-.273-7.927v-2.103c0-1.829 6.855-8.19 6.855-8.19.184-.068.383-.09.578-.063 1.179.214 2.315.619 3.364 1.198 4.154 2.019 9.947 6.025 10.367 7.549.642 2.219.4 11.008-.21 12.985z"/><path fill="#263238" d="M58.647 172.028c0 .736-.273 1.335-.578 1.335-.305 0-.61-.578-.61-1.335s.273-1.357.61-1.357c.336 0 .578.621.578 1.357zm7.833-1.346c.337 0 .61.599.61 1.346 0 .746-.273 1.335-.61 1.335-.336 0-.61-.599-.61-1.335s.274-1.346.61-1.346z"/><path stroke="#263238" stroke-linecap="round" stroke-linejoin="round" d="M54.736 168.716s1.052-2.103 4.774-1.462m10.43 1.462s-1.052-2.103-4.774-1.462m-2.113 9.915a1.77 1.77 0 0 0 1.608-1.356s-2.04-3.154-1.419-6.245"/><path stroke="#fff" stroke-linecap="round" stroke-linejoin="round" d="M50.352 162.124a12.288 12.288 0 0 0-1.893 3.806m10.682-12.218s-1.167 1.935-6.308 5.878a9.716 9.716 0 0 0-.946.778"/><path fill="#263238" d="m42.656 215.356-2.103 30.007v-.767"/><path stroke="#263238" stroke-linecap="round" stroke-linejoin="round" d="m42.656 215.356-2.103 30.007v-.767"/><path fill="#fff" stroke="#263238" stroke-linecap="round" stroke-linejoin="round" d="M109.073 182.353a6.25 6.25 0 0 1 5.814.672 9.013 9.013 0 0 1 3.459 4.889 8.585 8.585 0 0 1-.189 6.036 5.7 5.7 0 0 1-4.763 3.417 6.805 6.805 0 0 1-4.206-1.525c-3.932-2.944-5.898-10.998-.115-13.489z"/><path fill="#fff" stroke="#263238" stroke-linecap="round" stroke-linejoin="round" d="M117.778 148.781c0 .126 0 .957.074 1.104.368 1.619 1.146 5.667-.821 6.487.747 2.66 2.576 20.04 2.335 28.903-.063 2.65-.526 5.794-2.902 6.929-4.006 1.903-7.812-2.733-7.36-6.361.704-4.952.463-9.999 1.051-15.003.642-5.194 1.819-10.514.526-15.593-.315-.347-2.334-4.352-2.996-5.456a6.27 6.27 0 0 1-.694-1.514 37.758 37.758 0 0 1-.379-5.478c.599-1.136 1.377-.084 1.787.662.335.91.45 1.886.337 2.849-.039.236-.006.478.095.694a.857.857 0 0 0 .788.358c1.293-.189 1.241-1.272 1.22-2.103v-8.338c0-.462.147-1.713.589-1.755.441-.042 1.103.315 1.167 1.797.073 1.672.073 6.824.073 6.824a.346.346 0 0 0 .326.095c.105 0 .147-.19.189-.295.621-2.586 1.252-5.173 1.872-7.759.073-.305.526-.936.851-.936.779 0 .8.904.842 1.167.273 1.388-1.672 7.108-1.998 8.411 0 .232 0 .579.242.516l3.049-6.151a2.505 2.505 0 0 1 1.651-1.493.263.263 0 0 1 .157 0 .31.31 0 0 1 .126.137c.295.525 0 1.251-.168 1.829-.168.578-2.45 4.826-3.259 6.54-.116.242-.305.788-.074 1.051.232.263.652-.242.82-.589.516-1.051.999-2.039 1.472-3.07.147-.305.368-.736.715-.662 2.05.442-.862 4.742-1.703 6.203z"/><path fill="#fff" d="M112.122 147.877a12.822 12.822 0 0 1 2.723 2.965 4.883 4.883 0 0 1 .631 3.869 2.903 2.903 0 0 1-.2.494"/><path stroke="#263238" stroke-linecap="round" stroke-linejoin="round" d="M112.122 147.877a12.822 12.822 0 0 1 2.723 2.965 4.883 4.883 0 0 1 .631 3.869 2.903 2.903 0 0 1-.2.494m-32.773 58.353a23.628 23.628 0 0 1 2.219 7.129c.305 2.481.4 4.426-1.293 11.397"/><path fill="#263238" stroke="#263238" stroke-linecap="round" stroke-linejoin="round" d="M58.773 157.214c-.143.429-.18.888-.105 1.335.2.562.567 1.05 1.052 1.398a47.523 47.523 0 0 0 11.166 7.297 2.104 2.104 0 0 1 1.545 2.376v8.127c.052.839-.03 1.68-.242 2.492-.588 1.893-1.892 3.417-2.838 5.163a10.418 10.418 0 0 0-1.41 5.456c-.262-2.008 6.761-5.898 8.664-13.804.263-1.115 5.73-7.749 2.45-15.54-3.154-7.476-8.117-10.693-9.789-11.082a7.44 7.44 0 0 0-6.676 1.283 10.513 10.513 0 0 0-3.817 5.499z"/><path stroke="#263238" stroke-linecap="round" stroke-linejoin="round" d="M65.66 179.997c-.599.127-1.209.242-1.818.316-2.103.263-4.353-.063-5.73-1.598.105 1.377 1.05 6.581 3.879 6.729 2.828.147 3.67-5.447 3.67-5.447z"/><path stroke="#fff" stroke-linecap="round" stroke-linejoin="round" d="M62.927 154.038a16.733 16.733 0 0 0 5.593 6.876c1.777 1.273 3.806 2.187 5.436 3.638 2.103 1.924 3.48 4.973 2.67 7.739"/><path stroke="#263238" stroke-linecap="round" stroke-linejoin="round" d="M84.9 196.515a10.263 10.263 0 0 0-3.732 6.529 11.921 11.921 0 0 0 .789 6.571"/><path fill="#263238" d="M45.736 213.863c-.168 2.755-1.882 5.141-3.543 7.36l3.543-7.36z"/><path stroke="#263238" stroke-linecap="round" stroke-linejoin="round" d="M45.736 213.863c-.168 2.755-1.882 5.141-3.543 7.36m-.557 13.7a11.71 11.71 0 0 0 7.717 5.467m32.509-3.827s-2.828 4.206-12.438 5.089"/><path fill="#fff" d="M363.375 199.711s-36.641 11.355-43.538 2.387l.936-45.747h5.562l6.539 32.226 30.028-5.499s3.848 11.923.473 16.633z"/><mask id="a" width="46" height="50" x="319" y="156" maskUnits="userSpaceOnUse" style="mask-type:luminance"><path fill="#fff" d="M363.375 199.711s-36.641 11.355-43.538 2.387l.936-45.747h5.562l6.539 32.226 30.028-5.499s3.848 11.923.473 16.633z"/></mask><g mask="url(#a)"><path fill="#938CC5" d="M347.941 201.309a31.775 31.775 0 0 0-5.983 3.155c2.482.788 5.131-.211 7.613-.999a77.043 77.043 0 0 1 9.998-2.355c.158-.936-1.051-3.07-1.524-3.901-.862-1.451-1.051-1.577-2.502-.862-2.639 1.325-4.889 3.627-7.602 4.962z"/></g><path stroke="#263238" stroke-linecap="round" stroke-linejoin="round" d="M363.375 199.711s-36.641 11.355-43.538 2.387l.936-45.747h5.562l6.539 32.226 30.028-5.499s3.848 11.923.473 16.633z"/><path fill="#fff" d="m359.78 200.91 6.434 39.617c-.168 25.675 12.081 21.816 20.587 21.743 9.83-.084 24.75-9.831 17.432-25.003l2.818-54.914-17.127-1.304c-5.646-.442-28.777.284-30.617 3.238-4.774 7.665.473 16.623.473 16.623z"/><mask id="b" width="51" height="83" x="357" y="180" maskUnits="userSpaceOnUse" style="mask-type:luminance"><path fill="#fff" d="m359.78 200.91 6.434 39.617c-.168 25.675 12.081 21.816 20.587 21.743 9.83-.084 24.75-9.831 17.432-25.003l2.818-54.914-17.127-1.304c-5.646-.442-28.777.284-30.617 3.238-4.774 7.665.473 16.623.473 16.623z"/></mask><g fill="#938CC5" mask="url(#b)"><path d="M360.789 204.18a59.04 59.04 0 0 0 25.644 34.885 16.86 16.86 0 0 1-3.985-1.146 5.89 5.89 0 0 0-4.058-.221 2.626 2.626 0 0 0-1.477 1.347 2.595 2.595 0 0 0-.09 1.997 3.73 3.73 0 0 0 1.22 1.209 27.366 27.366 0 0 0 6.781 3.47 17.786 17.786 0 0 0-6.308.483c-.379 1.83 1.661 3.154 3.27 4.048a20.088 20.088 0 0 1 6.434 6.046c-5.645.012-11.286.335-16.896.967a3.577 3.577 0 0 1-2.208-.21 3.515 3.515 0 0 1-1.366-2.24 57.462 57.462 0 0 1-2.166-13.426c-.105-2.555 0-5.131-.337-7.665a59.843 59.843 0 0 0-1.114-5.94 232.914 232.914 0 0 1-3.754-22.931c-.389.031.41-.673.41-.673zm43.434-3.154a12.125 12.125 0 0 1-3.901-2.103c.326 1.577 2.681 4.3 4.059 5.141.284.179.694.326.946.084s.42-.862.673-1.051l-1.777-2.071z"/></g><path stroke="#263238" stroke-linecap="round" stroke-linejoin="round" d="m359.78 200.91 6.434 39.617c-.168 25.675 12.081 21.816 20.587 21.743 9.83-.084 24.75-9.831 17.432-25.003l2.818-54.914-17.127-1.304c-5.646-.442-28.777.284-30.617 3.238-4.774 7.665.473 16.623.473 16.623z"/><path fill="#938CC5" stroke="#263238" stroke-linecap="round" stroke-linejoin="round" d="M372.302 180.239a21.12 21.12 0 0 0-2.565 11.029 2.52 2.52 0 0 0 .189.978c.473.936 1.766.936 2.807 1.052 4.048.515 6.561 4.784 10.378 6.213.133.083.282.138.438.161a1.168 1.168 0 0 0 1.191-.581c1.661-2.103 2.25-5.057 4.521-6.414.989-.588 2.24-.83 2.923-1.756.778-1.051.431-2.565.053-3.848-.621-2.102-1.315-4.289-2.923-5.751a9.939 9.939 0 0 0-5.993-2.103 27.34 27.34 0 0 0-9.463.884c.042.399-1.556.136-1.556.136z"/><path fill="#fff" d="M423.19 207.124a38.81 38.81 0 0 1-5.594-12.302 32.068 32.068 0 0 0-1.913-6.424 11.58 11.58 0 0 0-3.423-4.053 11.581 11.581 0 0 0-4.873-2.098 4.378 4.378 0 0 0-2.271.106c-1.524.578-2.197 2.334-2.502 3.932a21.295 21.295 0 0 0 .568 10.314c.704 2.271 9.168 18.736 14.719 25.118-.483-3.217 3.218-13.973 5.289-14.593z"/><mask id="c" width="22" height="40" x="402" y="182" maskUnits="userSpaceOnUse" style="mask-type:luminance"><path fill="#fff" d="M423.19 207.124a38.81 38.81 0 0 1-5.594-12.302 32.068 32.068 0 0 0-1.913-6.424 11.58 11.58 0 0 0-3.423-4.053 11.581 11.581 0 0 0-4.873-2.098 4.378 4.378 0 0 0-2.271.106c-1.524.578-2.197 2.334-2.502 3.932a21.295 21.295 0 0 0 .568 10.314c.704 2.271 9.168 18.736 14.719 25.118-.483-3.217 3.218-13.973 5.289-14.593z"/></mask><g mask="url(#c)"><path fill="#938CC5" d="m406.588 203.896 5.194 9.788c.747 1.399 1.588 2.892 3.039 3.501a41.738 41.738 0 0 1-1.546-9.925 17.001 17.001 0 0 0-.578-5.004c-.21.178-.431-.579-.431-.579-.231.431-.841.442-1.314.347-3.396-.715-5.731-3.743-7.749-6.56a6.386 6.386 0 0 0 1.051 5.551s2.166 2.555 2.334 2.881z"/></g><path stroke="#263238" stroke-linecap="round" stroke-linejoin="round" d="M423.19 207.124a38.81 38.81 0 0 1-5.594-12.302 32.068 32.068 0 0 0-1.913-6.424 11.58 11.58 0 0 0-3.423-4.053 11.581 11.581 0 0 0-4.873-2.098 4.378 4.378 0 0 0-2.271.106c-1.524.578-2.197 2.334-2.502 3.932a21.295 21.295 0 0 0 .568 10.314c.704 2.271 9.168 18.736 14.719 25.118-.483-3.217 3.218-13.973 5.289-14.593z"/><path fill="#fff" stroke="#263238" stroke-linecap="round" stroke-linejoin="round" d="M415.893 218.899c-5.657-10.84-2.923-35.821-3.091-39.837l7.465-.4c.746 0 4.205 21.302 6.561 30.144 2.102 8.054.084 16.202-3.638 16.202-3.091 0-6.109-3.827-7.297-6.109z"/><path stroke="#263238" stroke-linecap="round" stroke-linejoin="round" d="M348.488 190.753c5.257-7.675 15.571-8.285 15.571-8.285"/><path fill="#fff" d="M328.206 195.054a14.597 14.597 0 0 0 3.648-5.257l-3.648 5.257z"/><path stroke="#263238" stroke-linecap="round" stroke-linejoin="round" d="M328.206 195.054a14.597 14.597 0 0 0 3.648-5.257m35.412 41.53c2.996 4.91 22.405 10.156 30.143 9.031m-24.655 4.826a40.66 40.66 0 0 0 16.822-.641m8.927-46.998 3.701 5.015c.505.684 1.209 1.451 2.04 1.262"/><path fill="#fff" stroke="#263238" stroke-linecap="round" stroke-linejoin="round" d="M426.007 387.786c-.325 1.335-.431 2.923.526 3.922.957.999 2.345.978 3.638.957l4.447-.084c1.716.085 3.43-.183 5.037-.789a4.206 4.206 0 0 0 2.681-4.006 6.52 6.52 0 0 0-.631-1.913c-.4-.863-.799-1.735-1.188-2.597-4.91-10.819-12.407-4.238-14.51 4.51zm-6.266-12.753a64.738 64.738 0 0 1-1.24 14.803c-.232 1.104 0 2.776 1.051 2.671a1.694 1.694 0 0 0 1.052-.599 30.174 30.174 0 0 0 8.001-13.847 4.408 4.408 0 0 0-.116-3.396 4.779 4.779 0 0 0-1.051-1.115c-3.565-2.849-8.023-5.677-7.697 1.483z"/><path fill="#263238" d="M407.535 247.95s5.541 9.63 6.729 11.87c1.188 2.239 26.285 35.222 31.1 59.236.904 4.563-17.611 55.598-17.611 55.598l-4.206-2.376s2.923-46.546 2.208-50.415c-.715-3.869-19.188-32.425-19.188-32.425s-10.314-7.581-14.562-16.391l15.53-25.097z"/><path fill="#263238" d="M408.134 272.079s-3.154 7.024-3.154 8.033c0 1.009 17.348 55.83 22.447 68.509a276.68 276.68 0 0 1 8.527 25.066s1.977 2.597.484 5.257c-1.493 2.66-7.434 4.405-8.653 2.029-1.22-2.376-13.238-14.72-18.305-27-5.068-12.28-12.197-32.804-16.255-40.447a275.239 275.239 0 0 1-14.131-30.186c-5.099-13.048-10.314-27.116-10.314-27.116 2.118.191 4.246.251 6.371.179a53.11 53.11 0 0 0 14.72-2.608c11.082-3.722 15.876-10.85 15.876-10.85s2.744 7.433 3.459 8.874l-1.072 20.26z"/><path stroke="#fff" stroke-linecap="round" stroke-linejoin="round" d="M443.513 323.756a15.563 15.563 0 0 1-4.289 4.742m5.646-7.802a12.972 12.972 0 0 1-.568 1.504m-46.188-66.502c2.797 4.816 5.414 11.745 4.994 17.296a12.144 12.144 0 0 1-1.051 2.902m-20.871-14.846c.305 2.681.715 7.139.126 9.768a10.33 10.33 0 0 1-4.29 6.623m28.01-26.537a9.972 9.972 0 0 1 1.472 2.513 10.518 10.518 0 0 0 6.855 5.194m-17.254 3.038c3.712 8.117 6.551 16.255 12.312 30.049m-14.288-34.202c.315.631.62 1.262.925 1.893m29.965 60.203a38.567 38.567 0 0 0 6.424 8.958m-4.668-5.93a43.738 43.738 0 0 0 6.003 14.468m-32.141-14.205c-8.19-17.474-16.928-34.812-27.662-61.234m29.513 66.312c-.2-.609-.41-1.219-.631-1.84m28.945 55.567c-2.103-2.744-17.432-24.182-21.238-33.897-2.534-6.477-4.448-11.05-6.309-17.506m21.764 10.146 7.286 21.417"/><path fill="#fff" stroke="#263238" stroke-linecap="round" stroke-linejoin="round" d="m420.109 178.673-2.208.178a19.105 19.105 0 0 1-8.411-.389c-1.756-.431-5.825-1.692-6.308-1.777a36.188 36.188 0 0 0-3.659-.588c-3.712-.221-1.83-1.609-.284-1.546 2.04.095 2.723.053 4.29.168-.19-.105-.768-.22-.778-.673 0-1.104 1.451-1.051 1.451-1.051s-1.588-.673-1.367-1.504c.22-.83 1.282-1.051 1.955-.988 0 0-.893-.431-.851-.894.189-1.787 3.858-1.913 3.858-1.913a10.966 10.966 0 0 1-2.47-1.525 2.303 2.303 0 0 1-.558-1.051 1.051 1.051 0 0 1 1.514-1.051c.95.632 1.866 1.313 2.744 2.039 1.136.81 2.45 1.325 3.649 2.051a10.86 10.86 0 0 1 2.765 3.627c.189.294 4.668 6.887 4.668 6.887zm-99.336-22.322v-5.793a28.896 28.896 0 0 1 1.261-8.579c.484-1.535 1.052-2.871 1.567-3.07.957-.347 1.377 3.532 1.377 3.532a57.887 57.887 0 0 1-1.377-9.462c0-3.375 4.542 10.64 4.542 10.64l-1.808 12.732h-5.562z"/><path fill="#fff" d="M326.261 146.931a3.484 3.484 0 0 0 1.177-1.661l-1.177 1.661z"/><path stroke="#263238" stroke-linecap="round" stroke-linejoin="round" d="M326.261 146.931a3.484 3.484 0 0 0 1.177-1.661"/><path fill="#fff" stroke="#263238" stroke-linecap="round" stroke-linejoin="round" d="M370.294 168.432a22.551 22.551 0 0 1 3.154 10.903c.189 6.393 7.591 15.34 9.705 15.771 2.113.431 4.069-10.093 3.974-13.279-.095-3.186-1.272-11.986-1.272-11.986s-10.125-7.654-15.561-1.409z"/><path fill="#263238" d="M373.269 176.896s9.704 13.237 13.511-.221c3.806-13.458-10.672 3.68-13.511.221z"/><path fill="#fff" stroke="#263238" stroke-linecap="round" stroke-linejoin="round" d="M389.65 167.381c-.515 7.854-4.101 12.269-8.233 13.047-3.774.694-9.294-3.154-12.049-8.863a509.48 509.48 0 0 1-4.363-3.028 3.155 3.155 0 0 1-1.346-2.597 2.45 2.45 0 0 1 1.661-2.187h.095a2.508 2.508 0 0 1 1.419.105 85.758 85.758 0 0 1-1.692-8.148c.199-6.308 2.292-11.46 9.021-11.965 6.729-.505 12.354 3.259 12.617 5.972.189 2.103.872 7.665 1.482 13.416.168 1.493 1.504 2.481 1.388 4.248z"/><path fill="#fff" d="M386.78 158.296s-4.332-1.987-3.596 4.469c.147 1.272 2.513 3.154 2.513 3.154s-.61 1.903-1.735 1.903"/><path stroke="#263238" stroke-linecap="round" stroke-linejoin="round" d="M386.78 158.296s-4.332-1.987-3.596 4.469c.147 1.272 2.513 3.154 2.513 3.154s-.61 1.903-1.735 1.903"/><path fill="#fff" d="M378.41 160.504s-2.207-1.345-3.722-.515a4.434 4.434 0 0 0-1.934 1.63"/><path stroke="#263238" stroke-linecap="round" stroke-linejoin="round" d="M378.41 160.504s-2.207-1.345-3.722-.515a4.434 4.434 0 0 0-1.934 1.63"/><path fill="#263238" d="M377.149 164.226c.168.778 0 1.472-.452 1.567-.452.095-.894-.473-1.052-1.251-.157-.778 0-1.472.463-1.567.462-.094.883.463 1.041 1.251zm8.537-2.271c.168.778 0 1.472-.452 1.567-.452.095-.894-.473-1.051-1.241-.158-.767 0-1.482.452-1.566.452-.084.893.473 1.051 1.24z"/><path fill="#263238" stroke="#263238" stroke-linecap="round" stroke-linejoin="round" d="M364.637 147.562a5.551 5.551 0 0 0-1.535 2.765 17.454 17.454 0 0 0 1.609 13.363 6.514 6.514 0 0 1 2.103.084c.736.189 1.682 1.451 2.029 2.103.304.695.479 1.44.515 2.197-.168-1.997-.326-3.984-.494-5.982a6.554 6.554 0 0 1 .105-2.397c.515-1.64-.053-5.51.095-8.969 4.363 5.331 10.703 4.385 12.806 4.206 3.154-.263 5.846-3.491 5.677-5.793-.168-2.303-.788-8.233-11.187-8.843-2.29-.243-4.6.238-6.602 1.378a5.387 5.387 0 0 0-2.366 3.722c-.147.967.221 1.051-.515 1.524-.736.473-1.514.021-2.24.642z"/><path fill="#fff" d="M378.411 171.523s1.545 1.703 4.773.578l-4.773-.578z"/><path stroke="#263238" stroke-linecap="round" stroke-linejoin="round" d="M378.411 171.523s1.545 1.703 4.773.578"/></svg>